<mxfile host="app.diagrams.net" agent="Mozilla/5.0 (Windows NT 10.0; Win64; x64) AppleWebKit/537.36 (KHTML, like Gecko) Chrome/130.0.0.0 Safari/537.36" version="24.9.1">
  <diagram name="Page-1" id="WZwVvHjPCqPEUTxyxGWn">
    <mxGraphModel dx="1838" dy="962" grid="1" gridSize="10" guides="1" tooltips="1" connect="1" arrows="1" fold="1" page="1" pageScale="1" pageWidth="850" pageHeight="1100" math="0" shadow="0">
      <root>
        <mxCell id="0" />
        <mxCell id="1" parent="0" />
        <mxCell id="ZbxtkYr-YWAduZjAJKHO-77" value="" style="verticalLabelPosition=bottom;verticalAlign=top;html=1;shape=mxgraph.basic.rect;fillColor2=none;strokeWidth=2;size=20;indent=5;fillColor=none;" vertex="1" parent="1">
          <mxGeometry x="170" y="370" width="1080" height="590" as="geometry" />
        </mxCell>
        <mxCell id="ZbxtkYr-YWAduZjAJKHO-82" style="edgeStyle=orthogonalEdgeStyle;rounded=0;orthogonalLoop=1;jettySize=auto;html=1;" edge="1" parent="1" source="ZbxtkYr-YWAduZjAJKHO-3" target="ZbxtkYr-YWAduZjAJKHO-11">
          <mxGeometry relative="1" as="geometry" />
        </mxCell>
        <mxCell id="ZbxtkYr-YWAduZjAJKHO-3" value="user" style="shape=actor;whiteSpace=wrap;html=1;align=left;labelPosition=right;verticalLabelPosition=middle;verticalAlign=middle;fontSize=13;" vertex="1" parent="1">
          <mxGeometry x="690" y="30" width="40" height="60" as="geometry" />
        </mxCell>
        <mxCell id="ZbxtkYr-YWAduZjAJKHO-13" value="" style="edgeStyle=orthogonalEdgeStyle;rounded=0;orthogonalLoop=1;jettySize=auto;html=1;" edge="1" parent="1" source="ZbxtkYr-YWAduZjAJKHO-11" target="ZbxtkYr-YWAduZjAJKHO-12">
          <mxGeometry relative="1" as="geometry" />
        </mxCell>
        <mxCell id="ZbxtkYr-YWAduZjAJKHO-83" style="edgeStyle=orthogonalEdgeStyle;rounded=0;orthogonalLoop=1;jettySize=auto;html=1;entryX=0.5;entryY=1;entryDx=0;entryDy=0;" edge="1" parent="1" source="ZbxtkYr-YWAduZjAJKHO-11" target="ZbxtkYr-YWAduZjAJKHO-3">
          <mxGeometry relative="1" as="geometry" />
        </mxCell>
        <mxCell id="ZbxtkYr-YWAduZjAJKHO-11" value="Client app" style="verticalLabelPosition=bottom;verticalAlign=top;html=1;shape=mxgraph.basic.acute_triangle;dx=0.5;" vertex="1" parent="1">
          <mxGeometry x="660" y="160" width="100" height="70" as="geometry" />
        </mxCell>
        <mxCell id="ZbxtkYr-YWAduZjAJKHO-18" value="" style="edgeStyle=orthogonalEdgeStyle;rounded=0;orthogonalLoop=1;jettySize=auto;html=1;" edge="1" parent="1" source="ZbxtkYr-YWAduZjAJKHO-12" target="ZbxtkYr-YWAduZjAJKHO-15">
          <mxGeometry relative="1" as="geometry" />
        </mxCell>
        <mxCell id="ZbxtkYr-YWAduZjAJKHO-20" style="edgeStyle=orthogonalEdgeStyle;rounded=0;orthogonalLoop=1;jettySize=auto;html=1;" edge="1" parent="1" source="ZbxtkYr-YWAduZjAJKHO-12" target="ZbxtkYr-YWAduZjAJKHO-11">
          <mxGeometry relative="1" as="geometry" />
        </mxCell>
        <mxCell id="ZbxtkYr-YWAduZjAJKHO-12" value="&lt;font style=&quot;font-size: 16px;&quot;&gt;API Gateway (Kong)&lt;/font&gt;" style="rounded=1;whiteSpace=wrap;html=1;verticalAlign=top;" vertex="1" parent="1">
          <mxGeometry x="650" y="400" width="120" height="60" as="geometry" />
        </mxCell>
        <mxCell id="ZbxtkYr-YWAduZjAJKHO-59" style="edgeStyle=orthogonalEdgeStyle;rounded=0;orthogonalLoop=1;jettySize=auto;html=1;entryX=0;entryY=0.5;entryDx=0;entryDy=0;" edge="1" parent="1" source="ZbxtkYr-YWAduZjAJKHO-15" target="ZbxtkYr-YWAduZjAJKHO-12">
          <mxGeometry relative="1" as="geometry" />
        </mxCell>
        <mxCell id="ZbxtkYr-YWAduZjAJKHO-15" value="Auth (Keycloak)" style="sketch=0;outlineConnect=0;fontColor=#232F3E;gradientColor=none;strokeColor=#232F3E;fillColor=#ffffff;dashed=0;verticalLabelPosition=bottom;verticalAlign=top;align=center;html=1;fontSize=18;fontStyle=0;aspect=fixed;shape=mxgraph.aws4.resourceIcon;resIcon=mxgraph.aws4.addon;labelPosition=center;" vertex="1" parent="1">
          <mxGeometry x="430" y="400" width="60" height="60" as="geometry" />
        </mxCell>
        <mxCell id="ZbxtkYr-YWAduZjAJKHO-21" value="Booking Service" style="rounded=1;whiteSpace=wrap;html=1;absoluteArcSize=1;arcSize=14;strokeWidth=2;fillColor=none;" vertex="1" parent="1">
          <mxGeometry x="425" y="540" width="153" height="108" as="geometry" />
        </mxCell>
        <mxCell id="ZbxtkYr-YWAduZjAJKHO-22" value="Restaurant Service" style="rounded=1;whiteSpace=wrap;html=1;absoluteArcSize=1;arcSize=14;strokeWidth=2;fillColor=none;" vertex="1" parent="1">
          <mxGeometry x="637" y="540" width="153" height="108" as="geometry" />
        </mxCell>
        <mxCell id="ZbxtkYr-YWAduZjAJKHO-23" value="Ai Service" style="rounded=1;whiteSpace=wrap;html=1;absoluteArcSize=1;arcSize=14;strokeWidth=2;fillColor=none;" vertex="1" parent="1">
          <mxGeometry x="840" y="540" width="153" height="108" as="geometry" />
        </mxCell>
        <mxCell id="ZbxtkYr-YWAduZjAJKHO-27" value="Elastic search" style="strokeWidth=2;html=1;shape=mxgraph.flowchart.database;whiteSpace=wrap;fillColor=#9EE8D7;labelPosition=center;verticalLabelPosition=bottom;align=left;verticalAlign=top;fontSize=11;labelBackgroundColor=default;strokeColor=#54B3A0;" vertex="1" parent="1">
          <mxGeometry x="240" y="800" width="78" height="81" as="geometry" />
        </mxCell>
        <mxCell id="ZbxtkYr-YWAduZjAJKHO-28" value="OpenAI-GPT4" style="ellipse;shape=cloud;whiteSpace=wrap;html=1;" vertex="1" parent="1">
          <mxGeometry x="790" y="240" width="120" height="80" as="geometry" />
        </mxCell>
        <mxCell id="ZbxtkYr-YWAduZjAJKHO-29" value="OpenAI&amp;nbsp;&lt;div&gt;Embedding&amp;nbsp;&lt;/div&gt;&lt;div&gt;model&lt;/div&gt;" style="ellipse;shape=cloud;whiteSpace=wrap;html=1;" vertex="1" parent="1">
          <mxGeometry x="900" y="250" width="170" height="70" as="geometry" />
        </mxCell>
        <mxCell id="ZbxtkYr-YWAduZjAJKHO-33" style="edgeStyle=orthogonalEdgeStyle;rounded=0;orthogonalLoop=1;jettySize=auto;html=1;entryX=0.069;entryY=-0.004;entryDx=0;entryDy=0;entryPerimeter=0;" edge="1" parent="1" source="ZbxtkYr-YWAduZjAJKHO-28" target="ZbxtkYr-YWAduZjAJKHO-23">
          <mxGeometry relative="1" as="geometry" />
        </mxCell>
        <mxCell id="ZbxtkYr-YWAduZjAJKHO-34" style="edgeStyle=orthogonalEdgeStyle;rounded=0;orthogonalLoop=1;jettySize=auto;html=1;entryX=0.65;entryY=0.95;entryDx=0;entryDy=0;entryPerimeter=0;exitX=0.183;exitY=0.012;exitDx=0;exitDy=0;exitPerimeter=0;" edge="1" parent="1" source="ZbxtkYr-YWAduZjAJKHO-23" target="ZbxtkYr-YWAduZjAJKHO-28">
          <mxGeometry relative="1" as="geometry" />
        </mxCell>
        <mxCell id="ZbxtkYr-YWAduZjAJKHO-38" style="edgeStyle=orthogonalEdgeStyle;rounded=0;orthogonalLoop=1;jettySize=auto;html=1;entryX=0.946;entryY=0.006;entryDx=0;entryDy=0;entryPerimeter=0;" edge="1" parent="1" source="ZbxtkYr-YWAduZjAJKHO-29" target="ZbxtkYr-YWAduZjAJKHO-23">
          <mxGeometry relative="1" as="geometry" />
        </mxCell>
        <mxCell id="ZbxtkYr-YWAduZjAJKHO-39" style="edgeStyle=orthogonalEdgeStyle;rounded=0;orthogonalLoop=1;jettySize=auto;html=1;entryX=0.373;entryY=0.91;entryDx=0;entryDy=0;entryPerimeter=0;exitX=0.807;exitY=-0.012;exitDx=0;exitDy=0;exitPerimeter=0;" edge="1" parent="1" source="ZbxtkYr-YWAduZjAJKHO-23" target="ZbxtkYr-YWAduZjAJKHO-29">
          <mxGeometry relative="1" as="geometry">
            <mxPoint x="1023" y="630" as="sourcePoint" />
          </mxGeometry>
        </mxCell>
        <mxCell id="ZbxtkYr-YWAduZjAJKHO-41" value="" style="group" vertex="1" connectable="0" parent="1">
          <mxGeometry x="410" y="780" width="640" height="140" as="geometry" />
        </mxCell>
        <mxCell id="ZbxtkYr-YWAduZjAJKHO-42" value="Message broker" style="verticalLabelPosition=bottom;verticalAlign=top;html=1;shape=mxgraph.basic.rect;fillColor2=none;strokeWidth=1;size=20;indent=5;fillColor=none;" vertex="1" parent="ZbxtkYr-YWAduZjAJKHO-41">
          <mxGeometry width="640" height="140" as="geometry" />
        </mxCell>
        <mxCell id="ZbxtkYr-YWAduZjAJKHO-43" value="Queue 1" style="rounded=1;whiteSpace=wrap;html=1;absoluteArcSize=1;arcSize=14;strokeWidth=2;fillColor=#fff2cc;strokeColor=#d6b656;" vertex="1" parent="ZbxtkYr-YWAduZjAJKHO-41">
          <mxGeometry x="33.68421052631579" y="18.666666666666664" width="572.6315789473684" height="28" as="geometry" />
        </mxCell>
        <mxCell id="ZbxtkYr-YWAduZjAJKHO-44" value="Queue 2" style="rounded=1;whiteSpace=wrap;html=1;absoluteArcSize=1;arcSize=14;strokeWidth=2;fillColor=#e1d5e7;strokeColor=#9673a6;" vertex="1" parent="ZbxtkYr-YWAduZjAJKHO-41">
          <mxGeometry x="33.68421052631579" y="56" width="572.6315789473684" height="28" as="geometry" />
        </mxCell>
        <mxCell id="ZbxtkYr-YWAduZjAJKHO-45" value="Queue 3" style="rounded=1;whiteSpace=wrap;html=1;absoluteArcSize=1;arcSize=14;strokeWidth=2;fillColor=#ffe6cc;strokeColor=#d79b00;" vertex="1" parent="ZbxtkYr-YWAduZjAJKHO-41">
          <mxGeometry x="33.68421052631579" y="93.33333333333333" width="572.6315789473684" height="28" as="geometry" />
        </mxCell>
        <mxCell id="ZbxtkYr-YWAduZjAJKHO-48" style="edgeStyle=orthogonalEdgeStyle;rounded=0;orthogonalLoop=1;jettySize=auto;html=1;entryX=0.108;entryY=0.022;entryDx=0;entryDy=0;entryPerimeter=0;" edge="1" parent="1" source="ZbxtkYr-YWAduZjAJKHO-21" target="ZbxtkYr-YWAduZjAJKHO-42">
          <mxGeometry relative="1" as="geometry">
            <Array as="points">
              <mxPoint x="480" y="714" />
            </Array>
          </mxGeometry>
        </mxCell>
        <mxCell id="ZbxtkYr-YWAduZjAJKHO-50" style="edgeStyle=orthogonalEdgeStyle;rounded=0;orthogonalLoop=1;jettySize=auto;html=1;entryX=0.629;entryY=1.033;entryDx=0;entryDy=0;entryPerimeter=0;exitX=0.174;exitY=0.018;exitDx=0;exitDy=0;exitPerimeter=0;" edge="1" parent="1" source="ZbxtkYr-YWAduZjAJKHO-42" target="ZbxtkYr-YWAduZjAJKHO-21">
          <mxGeometry relative="1" as="geometry" />
        </mxCell>
        <mxCell id="ZbxtkYr-YWAduZjAJKHO-55" style="edgeStyle=orthogonalEdgeStyle;rounded=0;orthogonalLoop=1;jettySize=auto;html=1;entryX=0.629;entryY=1.033;entryDx=0;entryDy=0;entryPerimeter=0;exitX=0.174;exitY=0.018;exitDx=0;exitDy=0;exitPerimeter=0;" edge="1" parent="1">
          <mxGeometry relative="1" as="geometry">
            <mxPoint x="720" y="779" as="sourcePoint" />
            <mxPoint x="720" y="648" as="targetPoint" />
          </mxGeometry>
        </mxCell>
        <mxCell id="ZbxtkYr-YWAduZjAJKHO-56" style="edgeStyle=orthogonalEdgeStyle;rounded=0;orthogonalLoop=1;jettySize=auto;html=1;entryX=0.629;entryY=1.033;entryDx=0;entryDy=0;entryPerimeter=0;exitX=0.174;exitY=0.018;exitDx=0;exitDy=0;exitPerimeter=0;" edge="1" parent="1">
          <mxGeometry relative="1" as="geometry">
            <mxPoint x="915.91" y="780" as="sourcePoint" />
            <mxPoint x="915.91" y="649" as="targetPoint" />
          </mxGeometry>
        </mxCell>
        <mxCell id="ZbxtkYr-YWAduZjAJKHO-57" style="edgeStyle=orthogonalEdgeStyle;rounded=0;orthogonalLoop=1;jettySize=auto;html=1;entryX=0.108;entryY=0.022;entryDx=0;entryDy=0;entryPerimeter=0;" edge="1" parent="1">
          <mxGeometry relative="1" as="geometry">
            <mxPoint x="880" y="648" as="sourcePoint" />
            <mxPoint x="880" y="783" as="targetPoint" />
            <Array as="points">
              <mxPoint x="881" y="714" />
            </Array>
          </mxGeometry>
        </mxCell>
        <mxCell id="ZbxtkYr-YWAduZjAJKHO-58" style="edgeStyle=orthogonalEdgeStyle;rounded=0;orthogonalLoop=1;jettySize=auto;html=1;entryX=0.108;entryY=0.022;entryDx=0;entryDy=0;entryPerimeter=0;" edge="1" parent="1">
          <mxGeometry relative="1" as="geometry">
            <mxPoint x="686.82" y="648" as="sourcePoint" />
            <mxPoint x="686.82" y="783" as="targetPoint" />
            <Array as="points">
              <mxPoint x="687.82" y="714" />
            </Array>
          </mxGeometry>
        </mxCell>
        <mxCell id="ZbxtkYr-YWAduZjAJKHO-60" value="Read/write DB" style="strokeWidth=2;html=1;shape=mxgraph.flowchart.database;whiteSpace=wrap;fillColor=#6d8764;strokeColor=#3A5431;fontColor=#ffffff;" vertex="1" parent="1">
          <mxGeometry x="300" y="650" width="60" height="60" as="geometry" />
        </mxCell>
        <mxCell id="ZbxtkYr-YWAduZjAJKHO-61" value="" style="endArrow=classic;startArrow=classic;html=1;rounded=0;exitX=1;exitY=0.167;exitDx=0;exitDy=0;exitPerimeter=0;" edge="1" parent="1" source="ZbxtkYr-YWAduZjAJKHO-60">
          <mxGeometry width="50" height="50" relative="1" as="geometry">
            <mxPoint x="410" y="660" as="sourcePoint" />
            <mxPoint x="425" y="640" as="targetPoint" />
          </mxGeometry>
        </mxCell>
        <mxCell id="ZbxtkYr-YWAduZjAJKHO-62" value="Read/write DB" style="strokeWidth=2;html=1;shape=mxgraph.flowchart.database;whiteSpace=wrap;fillColor=#6d8764;strokeColor=#3A5431;fontColor=#ffffff;" vertex="1" parent="1">
          <mxGeometry x="550" y="670.38" width="60" height="60" as="geometry" />
        </mxCell>
        <mxCell id="ZbxtkYr-YWAduZjAJKHO-63" value="" style="endArrow=classic;startArrow=classic;html=1;rounded=0;exitX=1;exitY=0.167;exitDx=0;exitDy=0;exitPerimeter=0;entryX=0.076;entryY=1.003;entryDx=0;entryDy=0;entryPerimeter=0;" edge="1" parent="1" source="ZbxtkYr-YWAduZjAJKHO-62">
          <mxGeometry width="50" height="50" relative="1" as="geometry">
            <mxPoint x="660" y="680.38" as="sourcePoint" />
            <mxPoint x="648.6280000000002" y="648.004" as="targetPoint" />
          </mxGeometry>
        </mxCell>
        <mxCell id="ZbxtkYr-YWAduZjAJKHO-64" value="Read/write DB" style="strokeWidth=2;html=1;shape=mxgraph.flowchart.database;whiteSpace=wrap;fillColor=#6d8764;strokeColor=#3A5431;fontColor=#ffffff;" vertex="1" parent="1">
          <mxGeometry x="760" y="675.38" width="60" height="60" as="geometry" />
        </mxCell>
        <mxCell id="ZbxtkYr-YWAduZjAJKHO-65" value="" style="endArrow=classic;startArrow=classic;html=1;rounded=0;exitX=1;exitY=0.167;exitDx=0;exitDy=0;exitPerimeter=0;entryX=0;entryY=1;entryDx=0;entryDy=0;" edge="1" parent="1" source="ZbxtkYr-YWAduZjAJKHO-64">
          <mxGeometry width="50" height="50" relative="1" as="geometry">
            <mxPoint x="870" y="685.38" as="sourcePoint" />
            <mxPoint x="849.9999999999995" y="648" as="targetPoint" />
          </mxGeometry>
        </mxCell>
        <mxCell id="ZbxtkYr-YWAduZjAJKHO-66" value="" style="endArrow=classic;startArrow=classic;html=1;rounded=0;exitX=0.606;exitY=-0.008;exitDx=0;exitDy=0;exitPerimeter=0;entryX=0;entryY=1;entryDx=0;entryDy=0;" edge="1" parent="1" target="ZbxtkYr-YWAduZjAJKHO-12">
          <mxGeometry width="50" height="50" relative="1" as="geometry">
            <mxPoint x="566.7179999999998" y="539.996" as="sourcePoint" />
            <mxPoint x="637" y="460.86" as="targetPoint" />
          </mxGeometry>
        </mxCell>
        <mxCell id="ZbxtkYr-YWAduZjAJKHO-72" value="HTTP" style="edgeLabel;html=1;align=center;verticalAlign=middle;resizable=0;points=[];" vertex="1" connectable="0" parent="ZbxtkYr-YWAduZjAJKHO-66">
          <mxGeometry x="0.0434" y="3" relative="1" as="geometry">
            <mxPoint as="offset" />
          </mxGeometry>
        </mxCell>
        <mxCell id="ZbxtkYr-YWAduZjAJKHO-67" value="" style="endArrow=classic;startArrow=classic;html=1;rounded=0;entryX=0.5;entryY=1;entryDx=0;entryDy=0;" edge="1" parent="1" source="ZbxtkYr-YWAduZjAJKHO-22" target="ZbxtkYr-YWAduZjAJKHO-12">
          <mxGeometry width="50" height="50" relative="1" as="geometry">
            <mxPoint x="603" y="540" as="sourcePoint" />
            <mxPoint x="720" y="470" as="targetPoint" />
          </mxGeometry>
        </mxCell>
        <mxCell id="ZbxtkYr-YWAduZjAJKHO-68" value="&#xa;&lt;span style=&quot;color: rgb(0, 0, 0); font-family: Helvetica; font-size: 11px; font-style: normal; font-variant-ligatures: normal; font-variant-caps: normal; font-weight: 400; letter-spacing: normal; orphans: 2; text-align: center; text-indent: 0px; text-transform: none; widows: 2; word-spacing: 0px; -webkit-text-stroke-width: 0px; white-space: nowrap; background-color: rgb(255, 255, 255); text-decoration-thickness: initial; text-decoration-style: initial; text-decoration-color: initial; display: inline !important; float: none;&quot;&gt;HTTP&lt;/span&gt;&#xa;&#xa;" style="endArrow=classic;startArrow=classic;html=1;rounded=0;entryX=0;entryY=0;entryDx=0;entryDy=0;exitX=1;exitY=1;exitDx=0;exitDy=0;" edge="1" parent="1" source="ZbxtkYr-YWAduZjAJKHO-12" target="ZbxtkYr-YWAduZjAJKHO-23">
          <mxGeometry width="50" height="50" relative="1" as="geometry">
            <mxPoint x="730" y="490" as="sourcePoint" />
            <mxPoint x="780" y="440" as="targetPoint" />
          </mxGeometry>
        </mxCell>
        <mxCell id="ZbxtkYr-YWAduZjAJKHO-70" style="edgeStyle=orthogonalEdgeStyle;rounded=0;orthogonalLoop=1;jettySize=auto;html=1;entryX=-0.001;entryY=0.424;entryDx=0;entryDy=0;entryPerimeter=0;" edge="1" parent="1" source="ZbxtkYr-YWAduZjAJKHO-27" target="ZbxtkYr-YWAduZjAJKHO-42">
          <mxGeometry relative="1" as="geometry" />
        </mxCell>
        <mxCell id="ZbxtkYr-YWAduZjAJKHO-71" style="edgeStyle=orthogonalEdgeStyle;rounded=0;orthogonalLoop=1;jettySize=auto;html=1;" edge="1" parent="1" source="ZbxtkYr-YWAduZjAJKHO-42">
          <mxGeometry relative="1" as="geometry">
            <mxPoint x="320" y="850" as="targetPoint" />
          </mxGeometry>
        </mxCell>
        <mxCell id="ZbxtkYr-YWAduZjAJKHO-73" value="HTTP" style="edgeLabel;html=1;align=center;verticalAlign=middle;resizable=0;points=[];" vertex="1" connectable="0" parent="1">
          <mxGeometry x="720.0012765216555" y="499.9982745913942" as="geometry">
            <mxPoint x="-9" as="offset" />
          </mxGeometry>
        </mxCell>
        <mxCell id="ZbxtkYr-YWAduZjAJKHO-78" value="" style="edgeStyle=orthogonalEdgeStyle;rounded=0;orthogonalLoop=1;jettySize=auto;html=1;" edge="1" parent="1" source="ZbxtkYr-YWAduZjAJKHO-77" target="ZbxtkYr-YWAduZjAJKHO-11">
          <mxGeometry relative="1" as="geometry" />
        </mxCell>
        <mxCell id="ZbxtkYr-YWAduZjAJKHO-79" value="HTTP" style="edgeLabel;html=1;align=center;verticalAlign=middle;resizable=0;points=[];" vertex="1" connectable="0" parent="ZbxtkYr-YWAduZjAJKHO-78">
          <mxGeometry x="-0.3725" relative="1" as="geometry">
            <mxPoint as="offset" />
          </mxGeometry>
        </mxCell>
        <mxCell id="ZbxtkYr-YWAduZjAJKHO-80" value="Kubernetes" style="text;html=1;align=center;verticalAlign=middle;whiteSpace=wrap;rounded=0;fontSize=19;" vertex="1" parent="1">
          <mxGeometry x="200" y="380" width="60" height="30" as="geometry" />
        </mxCell>
      </root>
    </mxGraphModel>
  </diagram>
</mxfile>
